<svg width="17" height="19" viewBox="0 0 17 19" fill="none" xmlns="http://www.w3.org/2000/svg">
<path d="M10.7784 9.025C10.7784 9.6045 10.367 10.0795 9.84586 10.0795C9.33386 10.0795 8.91329 9.6045 8.91329 9.025C8.91329 8.4455 9.32472 7.9705 9.84586 7.9705C10.367 7.9705 10.7784 8.4455 10.7784 9.025ZM6.50872 7.9705C5.98757 7.9705 5.57615 8.4455 5.57615 9.025C5.57615 9.6045 5.99672 10.0795 6.50872 10.0795C7.02986 10.0795 7.44129 9.6045 7.44129 9.025C7.45043 8.4455 7.02986 7.9705 6.50872 7.9705ZM16.1636 1.957V19C13.8602 16.885 14.5969 17.5851 11.9213 15.0005L12.4059 16.758H2.03786C1.00472 16.758 0.163574 15.884 0.163574 14.801V1.957C0.163574 0.874 1.00472 0 2.03786 0H14.2893C15.3224 0 16.1636 0.874 16.1636 1.957ZM13.5579 10.963C13.5579 7.904 12.2413 5.4245 12.2413 5.4245C10.9247 4.3985 9.67215 4.427 9.67215 4.427L9.54415 4.579C11.0984 5.073 11.8207 5.7855 11.8207 5.7855C9.6489 4.54868 7.09772 4.54846 4.991 5.51C4.65272 5.6715 4.45157 5.7855 4.45157 5.7855C4.45157 5.7855 5.21043 5.035 6.85615 4.541L6.76472 4.427C6.76472 4.427 5.51215 4.3985 4.19557 5.4245C4.19557 5.4245 2.879 7.904 2.879 10.963C2.879 10.963 3.647 12.3405 5.66757 12.407C5.66757 12.407 6.00586 11.9795 6.28015 11.6185C5.119 11.2575 4.68015 10.4975 4.68015 10.4975C4.81465 10.5953 5.03643 10.7221 5.055 10.735C6.59822 11.633 8.79029 11.9272 10.7601 11.0675C11.0801 10.944 11.4367 10.7635 11.8116 10.507C11.8116 10.507 11.3544 11.286 10.1567 11.6375C10.431 11.9985 10.7601 12.407 10.7601 12.407C12.7807 12.3405 13.5579 10.963 13.5579 10.963Z" fill="white"/>
</svg>
