<svg width="20" height="19" viewBox="0 0 20 19" fill="none" xmlns="http://www.w3.org/2000/svg">
<path d="M9.58278 0.564698C4.28827 0.562647 0 4.66831 0 9.73579C0 13.743 2.68258 17.1494 6.4185 18.4003C6.92161 18.5213 6.84454 18.1789 6.84454 17.9451V16.3557C3.9393 16.6818 3.82155 14.8402 3.62673 14.5326C3.2328 13.8886 2.3015 13.7246 2.57982 13.4169C3.24136 13.0909 3.91575 13.499 4.69719 14.6043C5.2624 15.4062 6.36497 15.2709 6.92375 15.1376C7.04579 14.6556 7.30698 14.225 7.66666 13.8907C4.65651 13.3739 3.40193 11.6143 3.40193 9.52251C3.40193 8.50737 3.7509 7.57427 4.436 6.82163C3.99925 5.58091 4.47668 4.5186 4.5409 4.36069C5.78478 4.25405 7.0779 5.21382 7.17852 5.2897C7.88503 5.10718 8.69216 5.01079 9.59563 5.01079C10.5034 5.01079 11.3127 5.11128 12.0256 5.29585C12.2675 5.11948 13.4664 4.29507 14.6225 4.39556C14.6846 4.55347 15.1513 5.59116 14.7403 6.81548C15.4339 7.57017 15.7872 8.51148 15.7872 9.52866C15.7872 11.6246 14.524 13.3862 11.5053 13.8948C11.7639 14.1383 11.9692 14.4288 12.1092 14.7492C12.2493 15.0697 12.3213 15.4136 12.321 15.761V18.0681C12.3382 18.2527 12.321 18.4352 12.6422 18.4352C16.4337 17.2109 19.1634 13.7799 19.1634 9.73784C19.1634 4.66831 14.873 0.564698 9.58278 0.564698Z" fill="white"/>
</svg>
